<svg width="104" height="16" viewBox="0 0 104 16" fill="none" xmlns="http://www.w3.org/2000/svg">
<g clip-path="url(#clip0_101_126)">
<path d="M7.20277 1.38322L5.38889 5.061L1.33055 5.65267C0.602774 5.75822 0.311107 6.65545 0.838885 7.16934L3.775 10.0304L3.08055 14.0721C2.95555 14.8027 3.725 15.3499 4.36944 15.0082L8 13.0999L11.6306 15.0082C12.275 15.3471 13.0444 14.8027 12.9194 14.0721L12.225 10.0304L15.1611 7.16934C15.6889 6.65545 15.3972 5.75822 14.6694 5.65267L10.6111 5.061L8.79722 1.38322C8.47222 0.727669 7.53055 0.719335 7.20277 1.38322Z" fill="#FFB238"/>
</g>
<g clip-path="url(#clip1_101_126)">
<path d="M29.2028 1.38322L27.3889 5.061L23.3306 5.65267C22.6028 5.75822 22.3111 6.65545 22.8389 7.16934L25.775 10.0304L25.0806 14.0721C24.9556 14.8027 25.725 15.3499 26.3694 15.0082L30 13.0999L33.6306 15.0082C34.275 15.3471 35.0444 14.8027 34.9194 14.0721L34.225 10.0304L37.1611 7.16934C37.6889 6.65545 37.3972 5.75822 36.6694 5.65267L32.6111 5.061L30.7972 1.38322C30.4722 0.727669 29.5306 0.719335 29.2028 1.38322Z" fill="#FFB238"/>
</g>
<g clip-path="url(#clip2_101_126)">
<path d="M51.2028 1.38322L49.3889 5.061L45.3306 5.65267C44.6028 5.75822 44.3111 6.65545 44.8389 7.16934L47.775 10.0304L47.0806 14.0721C46.9556 14.8027 47.725 15.3499 48.3694 15.0082L52 13.0999L55.6306 15.0082C56.275 15.3471 57.0444 14.8027 56.9194 14.0721L56.225 10.0304L59.1611 7.16934C59.6889 6.65545 59.3972 5.75822 58.6694 5.65267L54.6111 5.061L52.7972 1.38322C52.4722 0.727669 51.5306 0.719335 51.2028 1.38322Z" fill="#FFB238"/>
</g>
<g clip-path="url(#clip3_101_126)">
<path d="M73.2028 1.38322L71.3889 5.061L67.3306 5.65267C66.6028 5.75822 66.3111 6.65545 66.8389 7.16934L69.775 10.0304L69.0806 14.0721C68.9556 14.8027 69.725 15.3499 70.3694 15.0082L74 13.0999L77.6306 15.0082C78.275 15.3471 79.0444 14.8027 78.9194 14.0721L78.225 10.0304L81.1611 7.16934C81.6889 6.65545 81.3972 5.75822 80.6694 5.65267L76.6111 5.061L74.7972 1.38322C74.4722 0.727669 73.5306 0.719335 73.2028 1.38322Z" fill="#FFB238"/>
</g>
<g clip-path="url(#clip4_101_126)">
<path d="M103.181 5.47786L98.8113 4.84174L96.8587 0.889796C96.6832 0.536662 96.3408 0.358154 95.9984 0.358154C95.6581 0.358154 95.3181 0.534274 95.142 0.889796L93.1889 4.84144L88.8193 5.47696C88.0357 5.59039 87.7217 6.55427 88.2898 7.10651L91.4507 10.1811L90.7026 14.5238C90.5963 15.1441 91.0916 15.6417 91.6462 15.6417C91.7934 15.6417 91.9447 15.6068 92.0901 15.5298L95.999 13.4796L99.9077 15.5304C100.053 15.6065 100.204 15.6411 100.35 15.6411C100.906 15.6411 101.402 15.1453 101.295 14.5247L100.548 10.1817L103.71 7.10771C104.278 6.55547 103.964 5.59129 103.181 5.47786ZM99.5465 9.15547L99.0056 9.68144L99.1334 10.4241L99.716 13.8107L96.6674 12.211L95.9993 11.8605L96.0002 2.39218L97.5235 5.47547L97.8572 6.15099L98.6038 6.25965L102.014 6.75606L99.5465 9.15547Z" fill="#FFB238"/>
</g>
<defs>
<clipPath id="clip0_101_126">
<rect width="16" height="16" fill="white"/>
</clipPath>
<clipPath id="clip1_101_126">
<rect width="16" height="16" fill="white" transform="translate(22)"/>
</clipPath>
<clipPath id="clip2_101_126">
<rect width="16" height="16" fill="white" transform="translate(44)"/>
</clipPath>
<clipPath id="clip3_101_126">
<rect width="16" height="16" fill="white" transform="translate(66)"/>
</clipPath>
<clipPath id="clip4_101_126">
<rect width="16" height="16" fill="white" transform="translate(88)"/>
</clipPath>
</defs>
</svg>
