<svg width="204" height="36" viewBox="0 0 204 36" fill="none" xmlns="http://www.w3.org/2000/svg">
<circle cx="186" cy="18" r="17.5" stroke="#6D7D7D"/>
<g clip-path="url(#clip0_101_11)">
<path d="M186.003 14.8554C184.264 14.8554 182.861 16.2581 182.861 17.9972C182.861 19.7362 184.264 21.139 186.003 21.139C187.742 21.139 189.145 19.7362 189.145 17.9972C189.145 16.2581 187.742 14.8554 186.003 14.8554ZM186.003 20.0397C184.879 20.0397 183.96 19.1237 183.96 17.9972C183.96 16.8706 184.876 15.9546 186.003 15.9546C187.129 15.9546 188.045 16.8706 188.045 17.9972C188.045 19.1237 187.127 20.0397 186.003 20.0397ZM190.006 14.7269C190.006 15.1343 189.678 15.4597 189.273 15.4597C188.866 15.4597 188.54 15.1315 188.54 14.7269C188.54 14.3222 188.868 13.994 189.273 13.994C189.678 13.994 190.006 14.3222 190.006 14.7269ZM192.087 15.4706C192.04 14.489 191.816 13.6194 191.097 12.903C190.38 12.1866 189.511 11.9624 188.529 11.9132C187.518 11.8558 184.485 11.8558 183.473 11.9132C182.495 11.9597 181.625 12.1839 180.906 12.9003C180.187 13.6167 179.965 14.4862 179.916 15.4679C179.859 16.4796 179.859 19.512 179.916 20.5237C179.962 21.5054 180.187 22.3749 180.906 23.0913C181.625 23.8077 182.492 24.0319 183.473 24.0812C184.485 24.1386 187.518 24.1386 188.529 24.0812C189.511 24.0347 190.38 23.8104 191.097 23.0913C191.813 22.3749 192.037 21.5054 192.087 20.5237C192.144 19.512 192.144 16.4823 192.087 15.4706ZM190.78 21.6093C190.566 22.1452 190.153 22.5581 189.615 22.7741C188.808 23.094 186.894 23.0202 186.003 23.0202C185.111 23.0202 183.195 23.0913 182.391 22.7741C181.855 22.5608 181.442 22.1479 181.226 21.6093C180.906 20.8026 180.98 18.8886 180.98 17.9972C180.98 17.1058 180.909 15.189 181.226 14.3851C181.439 13.8491 181.852 13.4362 182.391 13.2202C183.197 12.9003 185.111 12.9741 186.003 12.9741C186.894 12.9741 188.811 12.903 189.615 13.2202C190.151 13.4335 190.564 13.8464 190.78 14.3851C191.1 15.1917 191.026 17.1058 191.026 17.9972C191.026 18.8886 191.1 20.8054 190.78 21.6093Z" fill="white"/>
</g>
<circle cx="130" cy="18" r="17.5" stroke="#6D7D7D"/>
<path d="M126.617 23.2502H124.077V15.0717H126.617V23.2502ZM125.346 13.9561C124.534 13.9561 123.875 13.2834 123.875 12.4713C123.875 12.0812 124.03 11.7071 124.306 11.4313C124.582 11.1554 124.956 11.0005 125.346 11.0005C125.736 11.0005 126.11 11.1554 126.386 11.4313C126.662 11.7071 126.817 12.0812 126.817 12.4713C126.817 13.2834 126.158 13.9561 125.346 13.9561ZM136.122 23.2502H133.588V19.269C133.588 18.3201 133.569 17.1033 132.268 17.1033C130.947 17.1033 130.745 18.1342 130.745 19.2006V23.2502H128.208V15.0717H130.644V16.1873H130.679C131.018 15.5447 131.847 14.8666 133.082 14.8666C135.653 14.8666 136.125 16.5592 136.125 18.7576V23.2502H136.122Z" fill="white"/>
<circle cx="74" cy="18" r="17.5" stroke="#6D7D7D"/>
<path d="M79.5609 15.1487C79.5698 15.273 79.5698 15.3974 79.5698 15.5218C79.5698 19.3149 76.6827 23.6855 71.4061 23.6855C69.7804 23.6855 68.2703 23.2147 67 22.3974C67.231 22.4241 67.453 22.4329 67.6929 22.4329C69.0342 22.4329 70.269 21.9799 71.2551 21.2071C69.9936 21.1804 68.9365 20.3543 68.5723 19.2172C68.75 19.2438 68.9277 19.2616 69.1142 19.2616C69.3718 19.2616 69.6295 19.2261 69.8693 19.1639C68.5546 18.8974 67.5685 17.7426 67.5685 16.3479V16.3124C67.9505 16.5256 68.3947 16.6589 68.8654 16.6766C68.0926 16.1614 67.5863 15.2819 67.5863 14.287C67.5863 13.754 67.7284 13.2654 67.9771 12.839C69.3896 14.5802 71.5127 15.7172 73.8934 15.8416C73.849 15.6284 73.8223 15.4063 73.8223 15.1842C73.8223 13.603 75.1015 12.3149 76.6916 12.3149C77.5177 12.3149 78.2639 12.6614 78.788 13.221C79.4365 13.0967 80.0583 12.8568 80.6091 12.5281C80.3959 13.1944 79.9428 13.754 79.3477 14.1093C79.9251 14.0472 80.4847 13.8873 80.9999 13.6652C80.6091 14.2337 80.1205 14.74 79.5609 15.1487Z" fill="white"/>
<circle cx="18" cy="18" r="17.5" stroke="#6D7D7D"/>
<path d="M21.2577 18.875L21.6465 16.3413H19.2154V14.6971C19.2154 14.004 19.555 13.3283 20.6439 13.3283H21.7491V11.1712C21.7491 11.1712 20.7461 11 19.7872 11C17.7851 11 16.4764 12.2135 16.4764 14.4103V16.3413H14.2509V18.875H16.4764V25H19.2154V18.875H21.2577Z" fill="white"/>
<defs>
<clipPath id="clip0_101_11">
<rect width="14" height="14" fill="white" transform="translate(179 11)"/>
</clipPath>
</defs>
</svg>
