<svg width="13" height="13" viewBox="0 0 13 13" fill="none" xmlns="http://www.w3.org/2000/svg">
<path d="M1.90385 1.90118C0.994791 2.81031 0.375714 3.969 0.124903 5.22999C-0.125908 6.49125 0.00281375 7.79855 0.494789 8.98658C0.986744 10.1743 1.81987 11.1898 2.88878 11.9043C3.95771 12.6185 5.21441 13 6.5 13C7.78558 13 9.0423 12.6185 10.1112 11.9043C11.1801 11.1898 12.0133 10.1743 12.5052 8.98658C12.9972 7.79855 13.1259 6.49125 12.8751 5.22999C12.6243 3.969 12.0052 2.81031 11.0962 1.90118C9.87623 0.683799 8.2233 0 6.5 0C4.77671 0 3.12378 0.683799 1.90385 1.90118Z" fill="#6D7D7D"/>
</svg>
