<svg width="35" height="35" viewBox="0 0 35 35" fill="none" xmlns="http://www.w3.org/2000/svg">
<path d="M26.948 1.74512L30.0685 13.2231C30.2732 13.9758 30.2729 14.7681 30.0685 15.5205C29.8638 16.2732 29.4617 16.9593 28.9028 17.5102L17.2552 28.9907C16.6963 29.5416 16.0002 29.9376 15.2365 30.1394C14.4731 30.3409 13.669 30.3409 12.9056 30.1394L1.63691 27.1631C1.47814 28.6356 0.911905 30.0367 0 31.2134L13.6307 34.8133C14.5729 35.0622 15.565 35.0622 16.5072 34.8133C17.4496 34.5644 18.3086 34.0757 18.9985 33.3958L33.3724 19.2284C34.0622 18.5485 34.558 17.7018 34.8106 16.7729C35.0631 15.8443 35.0631 14.8664 34.8106 13.9378L31.0205 0C29.8517 0.940206 28.4425 1.5441 26.948 1.74512Z" fill="#6D7D7D"/>
</svg>
