<svg width="13" height="13" viewBox="0 0 13 13" fill="none" xmlns="http://www.w3.org/2000/svg">
<path d="M1.90379 1.9012C0.994854 2.81044 0.37553 3.96889 0.124948 5.23008C-0.125904 6.49123 0.00275173 7.79848 0.494766 8.98649C0.986779 10.1745 1.81981 11.1899 2.88862 11.9043C3.9577 12.6187 5.21439 13 6.49987 13C7.78562 13 9.0423 12.6187 10.1114 11.9043C11.1802 11.1899 12.0132 10.1745 12.5052 8.98649C12.9972 7.79848 13.1259 6.49123 12.8751 5.23008C12.6245 3.96889 12.0051 2.81044 11.0962 1.9012C9.8764 0.683734 8.22326 0 6.49987 0C4.77674 0 3.12359 0.683734 1.90379 1.9012Z" fill="#6D7D7D"/>
</svg>
