<svg width="34" height="34" viewBox="0 0 34 34" fill="none" xmlns="http://www.w3.org/2000/svg">
<path d="M20.7654 34C20.5078 34 20.2515 33.9663 20.0027 33.8996L9.97968 31.2139C9.64547 29.4293 8.77963 27.7873 7.49574 26.5036C6.21181 25.2199 4.56981 24.3538 2.78512 24.0198L0.0995702 13.9981C-0.0335651 13.4982 -0.0331935 12.9722 0.100712 12.4725C0.234617 11.9728 0.497329 11.517 0.862581 11.1507L11.1501 0.863474C11.516 0.497524 11.9718 0.234375 12.4717 0.100424C12.9717 -0.0335013 13.498 -0.0334744 13.9979 0.100504L23.7399 2.71075C24.1263 4.48431 25.0394 6.0998 26.3596 7.34565C27.6798 8.59147 29.3455 9.40957 31.1384 9.69274L33.9005 20.0025C34.0335 20.5026 34.0333 21.0287 33.8991 21.5282C33.7653 22.028 33.5026 22.4837 33.1372 22.8502L22.8497 33.1372C22.5767 33.4115 22.2516 33.6293 21.8939 33.7772C21.5361 33.9254 21.1526 34.0011 20.7654 34Z" fill="#6D7D7D"/>
</svg>
